<mxfile host="app.diagrams.net" modified="2024-05-18T13:37:38.873Z" agent="Mozilla/5.0 (Windows NT 10.0; Win64; x64) AppleWebKit/537.36 (KHTML, like Gecko) Chrome/125.0.0.0 Safari/537.36" etag="b3d53UJufp_EeRmba8Tb" version="24.4.4" type="github">
  <diagram name="Seite-1" id="uiEVvNNgFcN07YFnaSHW">
    <mxGraphModel dx="1018" dy="515" grid="1" gridSize="10" guides="1" tooltips="1" connect="1" arrows="1" fold="1" page="1" pageScale="1" pageWidth="840" pageHeight="1000" math="0" shadow="0">
      <root>
        <mxCell id="0" />
        <mxCell id="1" parent="0" />
        <mxCell id="I-S3wze22YUGqL7Zf7O3-4" style="edgeStyle=orthogonalEdgeStyle;rounded=0;orthogonalLoop=1;jettySize=auto;html=1;strokeColor=default;align=center;verticalAlign=middle;fontFamily=Helvetica;fontSize=11;fontColor=default;labelBackgroundColor=default;endArrow=open;endFill=0;entryX=0.507;entryY=0.267;entryDx=0;entryDy=0;entryPerimeter=0;" edge="1" parent="1" source="I-S3wze22YUGqL7Zf7O3-5" target="I-S3wze22YUGqL7Zf7O3-22">
          <mxGeometry relative="1" as="geometry">
            <mxPoint x="370" y="260" as="targetPoint" />
          </mxGeometry>
        </mxCell>
        <mxCell id="I-S3wze22YUGqL7Zf7O3-20" style="edgeStyle=orthogonalEdgeStyle;rounded=0;orthogonalLoop=1;jettySize=auto;html=1;entryX=0.5;entryY=0;entryDx=0;entryDy=0;strokeColor=default;align=center;verticalAlign=middle;fontFamily=Helvetica;fontSize=11;fontColor=default;labelBackgroundColor=default;endArrow=open;endFill=0;" edge="1" parent="1" source="I-S3wze22YUGqL7Zf7O3-5" target="I-S3wze22YUGqL7Zf7O3-19">
          <mxGeometry relative="1" as="geometry" />
        </mxCell>
        <mxCell id="I-S3wze22YUGqL7Zf7O3-5" value="" style="rhombus;whiteSpace=wrap;html=1;" vertex="1" parent="1">
          <mxGeometry x="345" y="340" width="50" height="50" as="geometry" />
        </mxCell>
        <mxCell id="I-S3wze22YUGqL7Zf7O3-6" style="edgeStyle=orthogonalEdgeStyle;rounded=0;orthogonalLoop=1;jettySize=auto;html=1;entryX=1;entryY=0.5;entryDx=0;entryDy=0;strokeColor=default;align=center;verticalAlign=middle;fontFamily=Helvetica;fontSize=11;fontColor=default;labelBackgroundColor=default;endArrow=open;endFill=0;" edge="1" parent="1" source="I-S3wze22YUGqL7Zf7O3-7" target="I-S3wze22YUGqL7Zf7O3-5">
          <mxGeometry relative="1" as="geometry">
            <Array as="points">
              <mxPoint x="440" y="365" />
            </Array>
          </mxGeometry>
        </mxCell>
        <mxCell id="I-S3wze22YUGqL7Zf7O3-7" value="Tag lÃ¶schen" style="rounded=1;whiteSpace=wrap;html=1;fontFamily=Helvetica;fontSize=11;fontColor=default;labelBackgroundColor=default;" vertex="1" parent="1">
          <mxGeometry x="388" y="250" width="98" height="40" as="geometry" />
        </mxCell>
        <mxCell id="I-S3wze22YUGqL7Zf7O3-8" style="edgeStyle=orthogonalEdgeStyle;rounded=0;orthogonalLoop=1;jettySize=auto;html=1;entryX=0;entryY=0.5;entryDx=0;entryDy=0;strokeColor=default;align=center;verticalAlign=middle;fontFamily=Helvetica;fontSize=11;fontColor=default;labelBackgroundColor=default;endArrow=open;endFill=0;" edge="1" parent="1" source="I-S3wze22YUGqL7Zf7O3-9" target="I-S3wze22YUGqL7Zf7O3-5">
          <mxGeometry relative="1" as="geometry">
            <Array as="points">
              <mxPoint x="306" y="365" />
            </Array>
          </mxGeometry>
        </mxCell>
        <mxCell id="I-S3wze22YUGqL7Zf7O3-9" value="Tag erstellen" style="rounded=1;whiteSpace=wrap;html=1;fontFamily=Helvetica;fontSize=11;fontColor=default;labelBackgroundColor=default;" vertex="1" parent="1">
          <mxGeometry x="257" y="250" width="98" height="40" as="geometry" />
        </mxCell>
        <mxCell id="I-S3wze22YUGqL7Zf7O3-12" value="fertig?" style="text;html=1;align=center;verticalAlign=middle;resizable=0;points=[];autosize=1;strokeColor=none;fillColor=none;fontFamily=Helvetica;fontSize=11;fontColor=default;labelBackgroundColor=default;" vertex="1" parent="1">
          <mxGeometry x="318" y="373" width="50" height="30" as="geometry" />
        </mxCell>
        <mxCell id="I-S3wze22YUGqL7Zf7O3-13" value="[nein]" style="text;html=1;align=center;verticalAlign=middle;resizable=0;points=[];autosize=1;strokeColor=none;fillColor=none;fontFamily=Helvetica;fontSize=11;fontColor=default;labelBackgroundColor=default;" vertex="1" parent="1">
          <mxGeometry x="360" y="310" width="50" height="30" as="geometry" />
        </mxCell>
        <mxCell id="I-S3wze22YUGqL7Zf7O3-14" value="" style="strokeWidth=1;html=1;shape=mxgraph.flowchart.annotation_2;align=left;labelPosition=right;pointerEvents=1;rotation=90;fontFamily=Helvetica;fontSize=11;fontColor=default;labelBackgroundColor=default;" vertex="1" parent="1">
          <mxGeometry x="338" y="274" width="9" height="11" as="geometry" />
        </mxCell>
        <mxCell id="I-S3wze22YUGqL7Zf7O3-15" value="" style="endArrow=none;html=1;rounded=0;entryX=0.519;entryY=0.49;entryDx=0;entryDy=0;entryPerimeter=0;exitX=1;exitY=0.5;exitDx=0;exitDy=0;exitPerimeter=0;strokeWidth=1;strokeColor=default;align=center;verticalAlign=middle;fontFamily=Helvetica;fontSize=11;fontColor=default;labelBackgroundColor=default;edgeStyle=orthogonalEdgeStyle;" edge="1" parent="1" source="I-S3wze22YUGqL7Zf7O3-14" target="I-S3wze22YUGqL7Zf7O3-14">
          <mxGeometry width="50" height="50" relative="1" as="geometry">
            <mxPoint x="-288" y="381.5" as="sourcePoint" />
            <mxPoint x="-225" y="411.5" as="targetPoint" />
          </mxGeometry>
        </mxCell>
        <mxCell id="I-S3wze22YUGqL7Zf7O3-16" value="Tags bearbeiten" style="shape=umlFrame;whiteSpace=wrap;html=1;pointerEvents=0;width=100;height=20;align=left;" vertex="1" parent="1">
          <mxGeometry x="220" y="110" width="310" height="380" as="geometry" />
        </mxCell>
        <mxCell id="I-S3wze22YUGqL7Zf7O3-18" style="edgeStyle=orthogonalEdgeStyle;rounded=0;orthogonalLoop=1;jettySize=auto;html=1;endArrow=open;endFill=0;entryX=0.509;entryY=0.417;entryDx=0;entryDy=0;entryPerimeter=0;" edge="1" parent="1" source="I-S3wze22YUGqL7Zf7O3-17" target="I-S3wze22YUGqL7Zf7O3-22">
          <mxGeometry relative="1" as="geometry">
            <mxPoint x="370" y="210" as="targetPoint" />
          </mxGeometry>
        </mxCell>
        <mxCell id="I-S3wze22YUGqL7Zf7O3-17" value="" style="ellipse;html=1;shape=startState;fillColor=#000000;strokeColor=#000000;" vertex="1" parent="1">
          <mxGeometry x="354" y="140" width="30" height="30" as="geometry" />
        </mxCell>
        <mxCell id="I-S3wze22YUGqL7Zf7O3-19" value="" style="ellipse;html=1;shape=endState;fillColor=#000000;strokeColor=#000000;fontFamily=Helvetica;fontSize=11;fontColor=default;labelBackgroundColor=default;" vertex="1" parent="1">
          <mxGeometry x="355" y="442" width="30" height="30" as="geometry" />
        </mxCell>
        <mxCell id="I-S3wze22YUGqL7Zf7O3-21" value="[ja]" style="text;html=1;align=center;verticalAlign=middle;resizable=0;points=[];autosize=1;strokeColor=none;fillColor=none;fontFamily=Helvetica;fontSize=11;fontColor=default;labelBackgroundColor=default;" vertex="1" parent="1">
          <mxGeometry x="360" y="400" width="40" height="30" as="geometry" />
        </mxCell>
        <mxCell id="I-S3wze22YUGqL7Zf7O3-23" style="edgeStyle=orthogonalEdgeStyle;rounded=0;orthogonalLoop=1;jettySize=auto;html=1;exitX=0.25;exitY=0.5;exitDx=0;exitDy=0;exitPerimeter=0;entryX=0.5;entryY=0;entryDx=0;entryDy=0;strokeColor=default;align=center;verticalAlign=middle;fontFamily=Helvetica;fontSize=11;fontColor=default;labelBackgroundColor=default;endArrow=open;endFill=0;" edge="1" parent="1" source="I-S3wze22YUGqL7Zf7O3-22" target="I-S3wze22YUGqL7Zf7O3-7">
          <mxGeometry relative="1" as="geometry" />
        </mxCell>
        <mxCell id="I-S3wze22YUGqL7Zf7O3-24" style="edgeStyle=orthogonalEdgeStyle;rounded=0;orthogonalLoop=1;jettySize=auto;html=1;exitX=0.75;exitY=0.5;exitDx=0;exitDy=0;exitPerimeter=0;entryX=0.5;entryY=0;entryDx=0;entryDy=0;strokeColor=default;align=center;verticalAlign=middle;fontFamily=Helvetica;fontSize=11;fontColor=default;labelBackgroundColor=default;endArrow=open;endFill=0;" edge="1" parent="1" source="I-S3wze22YUGqL7Zf7O3-22" target="I-S3wze22YUGqL7Zf7O3-9">
          <mxGeometry relative="1" as="geometry" />
        </mxCell>
        <mxCell id="I-S3wze22YUGqL7Zf7O3-22" value="" style="shape=line;html=1;strokeWidth=6;strokeColor=#000000;fillColor=#000000;fontFamily=Helvetica;fontSize=11;fontColor=default;labelBackgroundColor=default;rotation=-180;" vertex="1" parent="1">
          <mxGeometry x="241" y="200" width="261" height="10" as="geometry" />
        </mxCell>
      </root>
    </mxGraphModel>
  </diagram>
</mxfile>
